<svg version="1.1" xmlns="http://www.w3.org/2000/svg" viewBox="0 0 928.8000640869141 467.59996032714844" width="2786.400192260742" height="1402.7998809814453" filter="invert(93%) hue-rotate(180deg)">
  <!-- svg-source:excalidraw -->
  
  <defs>
    <style class="style-fonts">
      @font-face {
        font-family: "Virgil";
        src: url("https://excalidraw.com/Virgil.woff2");
      }
      @font-face {
        font-family: "Cascadia";
        src: url("https://excalidraw.com/Cascadia.woff2");
      }
      @font-face {
        font-family: "Assistant";
        src: url("https://excalidraw.com/Assistant-Regular.woff2");
      }
    </style>
    
  </defs>
  <g stroke-linecap="round" transform="translate(11.999984741210938 144.39996337890625) rotate(0 87.19999694824219 46)"><path d="M23 0 C75.39 2.29, 120.95 4.43, 151.4 0 C167.78 2.81, 171.26 7.3, 174.4 23 C176.08 43.51, 170.73 60.68, 174.4 69 C175.25 85.58, 163.44 94.62, 151.4 92 C114.88 89.35, 81.81 94.11, 23 92 C7.18 93.72, -1.48 82.81, 0 69 C-1.69 60.15, 2.05 47.08, 0 23 C2.42 9.97, 6.17 -2.35, 23 0" stroke="none" stroke-width="0" fill="#1971c2"></path><path d="M23 0 C50.83 -0.34, 81.05 2.43, 151.4 0 M23 0 C69.75 -0.67, 116.35 -0.98, 151.4 0 M151.4 0 C165.96 -1.74, 174.25 8.46, 174.4 23 M151.4 0 C164.82 2.04, 175.7 9.68, 174.4 23 M174.4 23 C173.73 39.95, 176.41 57.79, 174.4 69 M174.4 23 C175.09 39.62, 173.78 56.4, 174.4 69 M174.4 69 C174.87 83.97, 168.07 91.37, 151.4 92 M174.4 69 C175.19 85.05, 165.04 94.02, 151.4 92 M151.4 92 C109.9 92.95, 69.24 90.75, 23 92 M151.4 92 C105.31 92.74, 58.85 94.12, 23 92 M23 92 C8.65 91.17, 1.67 82.54, 0 69 M23 92 C6.61 92.03, -0.36 82.99, 0 69 M0 69 C-1.05 53.48, 0.3 41.07, 0 23 M0 69 C0.68 58.41, 0.76 48.96, 0 23 M0 23 C-1.26 8.15, 9.64 0.4, 23 0 M0 23 C-2.23 6.78, 6.38 -1.02, 23 0" stroke="#1e1e1e" stroke-width="2" fill="none"></path></g><g transform="translate(48.22003173828125 177.89996337890625) rotate(0 50.979949951171875 12.5)"><text x="50.979949951171875" y="0" font-family="Virgil, Segoe UI Emoji" font-size="20px" fill="#ffffff" text-anchor="middle" style="white-space: pre;" direction="ltr" dominant-baseline="text-before-edge">Application</text></g><g stroke-linecap="round" transform="translate(10 287.9999542236328) rotate(0 87.19999694824219 84.80000305175781)"><path d="M32 0 C63.13 1.94, 91.34 -0.29, 142.4 0 C162.09 -0.2, 174.07 7.67, 174.4 32 C171.52 57.99, 176.37 79.14, 174.4 137.6 C171.45 159.23, 166.64 172.02, 142.4 169.6 C120.4 168.97, 92.14 168.39, 32 169.6 C10.97 168.08, -2.25 162.37, 0 137.6 C-2.49 109.3, -4.2 79.84, 0 32 C0.54 8.36, 13.24 -3.51, 32 0" stroke="none" stroke-width="0" fill="#1971c2"></path><path d="M32 0 C55.35 -2.03, 77.45 -1.23, 142.4 0 M32 0 C62.98 0.57, 95.38 0.12, 142.4 0 M142.4 0 C162.6 0.06, 174.65 10.22, 174.4 32 M142.4 0 C163.8 -2.11, 175.83 8.74, 174.4 32 M174.4 32 C176.07 62.96, 176 93.78, 174.4 137.6 M174.4 32 C174.46 65.8, 174.96 101, 174.4 137.6 M174.4 137.6 C173.54 159.88, 164.71 168.01, 142.4 169.6 M174.4 137.6 C172.41 159.35, 164.24 168.42, 142.4 169.6 M142.4 169.6 C108.99 170.79, 75.26 171.67, 32 169.6 M142.4 169.6 C116.12 169.52, 88.41 170.99, 32 169.6 M32 169.6 C11.97 169.6, 1.84 158.45, 0 137.6 M32 169.6 C10.61 167.94, 1.78 161.19, 0 137.6 M0 137.6 C-1.99 105.13, 0.16 75.1, 0 32 M0 137.6 C0.72 107.36, -0.54 77.45, 0 32 M0 32 C0.85 8.79, 12.11 1.58, 32 0 M0 32 C-0.59 10.19, 12.32 -1.66, 32 0" stroke="#1e1e1e" stroke-width="2" fill="none"></path></g><g transform="translate(34.97004699707031 335.2999572753906) rotate(0 62.229949951171875 37.5)"><text x="62.229949951171875" y="0" font-family="Virgil, Segoe UI Emoji" font-size="20px" fill="#ffffff" text-anchor="middle" style="white-space: pre;" direction="ltr" dominant-baseline="text-before-edge">V8</text><text x="62.229949951171875" y="25" font-family="Virgil, Segoe UI Emoji" font-size="20px" fill="#ffffff" text-anchor="middle" style="white-space: pre;" direction="ltr" dominant-baseline="text-before-edge">(JavaScript </text><text x="62.229949951171875" y="50" font-family="Virgil, Segoe UI Emoji" font-size="20px" fill="#ffffff" text-anchor="middle" style="white-space: pre;" direction="ltr" dominant-baseline="text-before-edge">engine)</text></g><g stroke-opacity="0.4" fill-opacity="0.4" stroke-linecap="round" transform="translate(224.8000030517578 142.79995727539062) rotate(0 65.20001220703125 156.40000915527344)"><path d="M32 0 C57.23 -0.75, 76.23 2.94, 98.4 0 C122.42 -3.41, 128 11.42, 130.4 32 C131.49 124.61, 134.69 212.82, 130.4 280.8 C129.63 304.32, 121.24 313.87, 98.4 312.8 C81.14 316.36, 59.62 313.16, 32 312.8 C10.71 309.41, -1.26 299.4, 0 280.8 C1.65 217.75, 3.51 159.14, 0 32 C-0.04 7.28, 11.83 -0.09, 32 0" stroke="none" stroke-width="0" fill="#1971c2"></path><path d="M32 0 C51.13 1.55, 66.83 -0.66, 98.4 0 M32 0 C45.59 -0.26, 58.68 -0.38, 98.4 0 M98.4 0 C119.04 1.36, 129.51 8.93, 130.4 32 M98.4 0 C117.54 0.1, 129 10.95, 130.4 32 M130.4 32 C128.28 108.04, 130.45 186.11, 130.4 280.8 M130.4 32 C129.86 132.18, 129.22 230.96, 130.4 280.8 M130.4 280.8 C130.78 303.94, 120.69 312.06, 98.4 312.8 M130.4 280.8 C128.25 303.94, 118.74 312.58, 98.4 312.8 M98.4 312.8 C77.59 313.96, 55.06 314.27, 32 312.8 M98.4 312.8 C83.25 313.25, 69.44 313.58, 32 312.8 M32 312.8 C9.93 311.5, -1.95 302.31, 0 280.8 M32 312.8 C12.39 313.48, 0.6 302.91, 0 280.8 M0 280.8 C2.1 231.25, 0.57 180.44, 0 32 M0 280.8 C-0.04 199.91, 0.44 118.11, 0 32 M0 32 C-1.37 12.04, 12.54 -0.86, 32 0 M0 32 C-1.37 9.2, 11.77 0.71, 32 0" stroke="#ffffff" stroke-width="2" fill="none"></path></g><g stroke-linecap="round" transform="translate(231.9999542236328 339.5999755859375) rotate(0 60.399993896484375 33.20002746582031)"><path d="M16.6 0 C42.53 -3.33, 65.23 -2.33, 104.2 0 C112.21 0.14, 119.63 7.11, 120.8 16.6 C122.87 26.14, 122.18 27.48, 120.8 49.8 C120.73 62.61, 114.38 66.54, 104.2 66.4 C73.33 68.37, 51.87 63.58, 16.6 66.4 C8.96 63.28, 2.33 60.43, 0 49.8 C-1.39 41.98, -0.38 39.05, 0 16.6 C-2.76 6.93, 8.3 2.47, 16.6 0" stroke="none" stroke-width="0" fill="#1971c2"></path><path d="M16.6 0 C45.94 2.23, 76.48 -0.75, 104.2 0 M16.6 0 C36.78 0.86, 58.26 1.5, 104.2 0 M104.2 0 C115.04 1, 119.31 4.67, 120.8 16.6 M104.2 0 C117.05 1.63, 118.97 3.66, 120.8 16.6 M120.8 16.6 C122.45 25.5, 120.67 37.06, 120.8 49.8 M120.8 16.6 C121.05 25.41, 121.09 36.27, 120.8 49.8 M120.8 49.8 C119.47 61.04, 113.79 66.45, 104.2 66.4 M120.8 49.8 C121.85 63.05, 117.23 64.36, 104.2 66.4 M104.2 66.4 C81.37 68.21, 60.88 66, 16.6 66.4 M104.2 66.4 C78.58 67.77, 54.94 65.9, 16.6 66.4 M16.6 66.4 C6.11 67.75, 1.43 60.44, 0 49.8 M16.6 66.4 C5.05 66.19, 0.23 61.64, 0 49.8 M0 49.8 C1.77 36.35, 1.75 25.12, 0 16.6 M0 49.8 C-0.62 37.41, 0.71 26.08, 0 16.6 M0 16.6 C-1.82 6.59, 6.86 0.38, 16.6 0 M0 16.6 C-0.69 4.09, 5.26 -1.36, 16.6 0" stroke="#ffffff" stroke-width="2" fill="none"></path></g><g transform="translate(239.04999542236328 347.8000030517578) rotate(0 53.349952697753906 25)"><text x="53.349952697753906" y="0" font-family="Virgil, Segoe UI Emoji" font-size="20px" fill="#ffffff" text-anchor="middle" style="white-space: pre;" direction="ltr" dominant-baseline="text-before-edge">OS</text><text x="53.349952697753906" y="25" font-family="Virgil, Segoe UI Emoji" font-size="20px" fill="#ffffff" text-anchor="middle" style="white-space: pre;" direction="ltr" dominant-baseline="text-before-edge">Opearation</text></g><g transform="translate(240.0699920654297 155.5999755859375) rotate(0 54.289955139160156 37.5)"><text x="54.289955139160156" y="0" font-family="Virgil, Segoe UI Emoji" font-size="20px" fill="#1e1e1e" text-anchor="middle" style="white-space: pre;" direction="ltr" dominant-baseline="text-before-edge">Node.js</text><text x="54.289955139160156" y="25" font-family="Virgil, Segoe UI Emoji" font-size="20px" fill="#1e1e1e" text-anchor="middle" style="white-space: pre;" direction="ltr" dominant-baseline="text-before-edge">Buildings</text><text x="54.289955139160156" y="50" font-family="Virgil, Segoe UI Emoji" font-size="20px" fill="#1e1e1e" text-anchor="middle" style="white-space: pre;" direction="ltr" dominant-baseline="text-before-edge">(Node API)</text></g><g stroke-opacity="0.4" fill-opacity="0.4" stroke-linecap="round" transform="translate(386.00001525878906 141.40000915527344) rotate(0 266.4000244140625 156.40000915527344)"><path d="M32 0 C181.47 -2.5, 327.05 -3, 500.8 0 C521.17 -0.34, 534.88 7.23, 532.8 32 C533.29 131.16, 528.43 226.11, 532.8 280.8 C535.72 303.64, 525.61 313.71, 500.8 312.8 C382.83 314.83, 261.88 315.55, 32 312.8 C9.77 314.3, -0.64 303.91, 0 280.8 C-0.73 206.49, -1.78 138.23, 0 32 C-0.47 8.42, 8.3 0.23, 32 0" stroke="none" stroke-width="0" fill="#1971c2"></path><path d="M32 0 C133.56 2.52, 236.43 2.64, 500.8 0 M32 0 C144.39 -1.37, 256.24 -1, 500.8 0 M500.8 0 C523.14 -1.09, 533.35 11.28, 532.8 32 M500.8 0 C522.79 2.02, 530.55 9.12, 532.8 32 M532.8 32 C535.28 114.96, 536.26 199.63, 532.8 280.8 M532.8 32 C533.52 83.25, 533.83 133.53, 532.8 280.8 M532.8 280.8 C531.87 301.79, 521.19 311.4, 500.8 312.8 M532.8 280.8 C530.78 302.2, 522.64 314.93, 500.8 312.8 M500.8 312.8 C335.02 311.52, 169.38 312.95, 32 312.8 M500.8 312.8 C335.16 313.06, 169.5 313.28, 32 312.8 M32 312.8 C12.57 312.73, -0.96 301.26, 0 280.8 M32 312.8 C10.82 313.57, -1.41 302.05, 0 280.8 M0 280.8 C-0.34 219.5, -0.74 155.66, 0 32 M0 280.8 C-0.91 198.45, -2.13 116.05, 0 32 M0 32 C1.79 11.05, 9.38 0.52, 32 0 M0 32 C0.79 8.68, 10.71 0.72, 32 0" stroke="#ffffff" stroke-width="2" fill="none"></path></g><g stroke-linecap="round" transform="translate(406.3999786376953 281.9999694824219) rotate(0 40.800018310546875 8.399993896484375)"><path d="M4.2 0 C19.57 -0.34, 36.42 1.16, 77.4 0 C77.62 0.4, 81 2.16, 81.6 4.2 C82.46 7.19, 81.54 10.43, 81.6 12.6 C79.47 14.35, 78.97 20.12, 77.4 16.8 C58.18 18.85, 43.24 12.39, 4.2 16.8 C1.39 15.99, 0.83 12.61, 0 12.6 C1.35 10.6, 0.02 4.74, 0 4.2 C-3.29 4.59, -1.89 1.74, 4.2 0" stroke="none" stroke-width="0" fill="#1971c2"></path><path d="M4.2 0 C19.85 0.59, 36.63 -1.82, 77.4 0 M4.2 0 C29.51 -0.7, 56.74 -0.97, 77.4 0 M77.4 0 C78.73 -1.74, 83.22 1.58, 81.6 4.2 M77.4 0 C80.91 -1.99, 80.77 2.96, 81.6 4.2 M81.6 4.2 C81.46 6.58, 80.8 8.07, 81.6 12.6 M81.6 4.2 C81.27 6.31, 81.99 8.45, 81.6 12.6 M81.6 12.6 C83.27 13.45, 80.95 16.26, 77.4 16.8 M81.6 12.6 C81.46 16.7, 79.98 18.24, 77.4 16.8 M77.4 16.8 C56.58 14.72, 37.26 15.49, 4.2 16.8 M77.4 16.8 C49.17 16.61, 21.62 15.34, 4.2 16.8 M4.2 16.8 C-0.6 17.58, -1.58 16.28, 0 12.6 M4.2 16.8 C1.92 17.59, 0.86 15.21, 0 12.6 M0 12.6 C0.24 9.07, -0.57 6.4, 0 4.2 M0 12.6 C-0.32 9.99, -0.2 7.01, 0 4.2 M0 4.2 C0.54 2.76, 0.09 1.86, 4.2 0 M0 4.2 C-0.29 0.94, 2.78 1.94, 4.2 0" stroke="#1e1e1e" stroke-width="2" fill="none"></path></g><g stroke-linecap="round" transform="translate(406.3999481201172 394.6000061035156) rotate(0 40.800018310546875 8.399993896484375)"><path d="M4.2 0 C19.79 -2.25, 34.56 2.5, 77.4 0 C82.28 1.22, 81.7 1.63, 81.6 4.2 C80.97 6.79, 83.08 7.8, 81.6 12.6 C78.75 17.62, 77.21 18.38, 77.4 16.8 C63.08 18.64, 42.91 18.92, 4.2 16.8 C0.95 16.9, -0.66 14.54, 0 12.6 C1.08 10.11, -0.1 7.35, 0 4.2 C-3.1 -0.49, 2.04 -3.41, 4.2 0" stroke="none" stroke-width="0" fill="#1971c2"></path><path d="M4.2 0 C24.71 0.96, 46.32 -1.46, 77.4 0 M4.2 0 C27.15 0.42, 49 0.36, 77.4 0 M77.4 0 C80.63 -0.19, 82.77 0.21, 81.6 4.2 M77.4 0 C79.53 -0.79, 83.72 0.28, 81.6 4.2 M81.6 4.2 C82.24 8.07, 80.74 10.69, 81.6 12.6 M81.6 4.2 C81.96 6.58, 81.25 9.24, 81.6 12.6 M81.6 12.6 C83.2 15.45, 78.29 14.97, 77.4 16.8 M81.6 12.6 C83.64 13.3, 81.31 16, 77.4 16.8 M77.4 16.8 C60.8 18.47, 42.38 16.99, 4.2 16.8 M77.4 16.8 C56.41 18.23, 33.57 18.11, 4.2 16.8 M4.2 16.8 C0.02 18.31, 1.58 14.99, 0 12.6 M4.2 16.8 C0.89 18.56, -1.67 16.62, 0 12.6 M0 12.6 C0.34 10.07, 0.21 6.46, 0 4.2 M0 12.6 C-0.08 10.29, -0.31 7.64, 0 4.2 M0 4.2 C0.57 1.33, 2.91 1.93, 4.2 0 M0 4.2 C-2.17 1.03, 1.52 0.37, 4.2 0" stroke="#1e1e1e" stroke-width="2" fill="none"></path></g><g stroke-linecap="round" transform="translate(407.3999481201172 422.3999938964844) rotate(0 40.800018310546875 8.399993896484375)"><path d="M4.2 0 C23.09 0.42, 37.91 -0.58, 77.4 0 C78.84 2.34, 81.85 -0.34, 81.6 4.2 C80.54 7.87, 80.48 10.33, 81.6 12.6 C78.87 18.05, 79.58 18.88, 77.4 16.8 C50.78 17.76, 24.4 16.8, 4.2 16.8 C0.36 14.2, -2.56 17.72, 0 12.6 C-1.28 9.41, 0.29 6.37, 0 4.2 C1.61 1.83, 3.12 0.73, 4.2 0" stroke="none" stroke-width="0" fill="#1971c2"></path><path d="M4.2 0 C30.01 0.19, 55.8 0.89, 77.4 0 M4.2 0 C30.56 -0.47, 57.08 -0.97, 77.4 0 M77.4 0 C79.62 -0.68, 83.44 0.43, 81.6 4.2 M77.4 0 C82.19 -1.7, 81.08 3.33, 81.6 4.2 M81.6 4.2 C81.33 7.53, 80.87 11.16, 81.6 12.6 M81.6 4.2 C81.86 6.83, 81.12 9.04, 81.6 12.6 M81.6 12.6 C83.37 13.57, 81.16 16.11, 77.4 16.8 M81.6 12.6 C80.16 13.67, 79.72 17.7, 77.4 16.8 M77.4 16.8 C48.68 15.97, 21.46 18.34, 4.2 16.8 M77.4 16.8 C47.9 18.15, 20.57 17.19, 4.2 16.8 M4.2 16.8 C0.96 18.33, -1.45 16.46, 0 12.6 M4.2 16.8 C3.14 14.95, 1.09 16.16, 0 12.6 M0 12.6 C-0.12 8.71, 0.58 6, 0 4.2 M0 12.6 C0.2 9.84, 0.39 7.52, 0 4.2 M0 4.2 C-1.89 1.08, 1.5 0.32, 4.2 0 M0 4.2 C-1.86 1.74, 0.9 -0.28, 4.2 0" stroke="#1e1e1e" stroke-width="2" fill="none"></path></g><g stroke-linecap="round" transform="translate(407.1999969482422 365) rotate(0 40.800018310546875 8.399993896484375)"><path d="M4.2 0 C24.08 3.72, 39.35 3.13, 77.4 0 C77.07 0.95, 80.35 -0.62, 81.6 4.2 C80.98 6.36, 82.25 8.94, 81.6 12.6 C82.14 15.12, 77.14 15.56, 77.4 16.8 C61.15 13.7, 43.08 16.79, 4.2 16.8 C3.99 20.33, -0.74 14.11, 0 12.6 C0.66 9.17, 0.11 7.07, 0 4.2 C0.6 4.96, 3.86 2.81, 4.2 0" stroke="none" stroke-width="0" fill="#1971c2"></path><path d="M4.2 0 C29 0.86, 51.5 0.31, 77.4 0 M4.2 0 C28.4 0.63, 53.39 0.85, 77.4 0 M77.4 0 C79.17 -1.62, 82.82 0.92, 81.6 4.2 M77.4 0 C79.02 0.43, 83.22 2.86, 81.6 4.2 M81.6 4.2 C81.88 7.36, 81.16 8.51, 81.6 12.6 M81.6 4.2 C81.87 6.93, 81.32 9.19, 81.6 12.6 M81.6 12.6 C83.58 13.69, 78.85 16.9, 77.4 16.8 M81.6 12.6 C79.71 16.04, 81.53 17.1, 77.4 16.8 M77.4 16.8 C49.36 16.88, 19.95 17.96, 4.2 16.8 M77.4 16.8 C54.5 16.37, 30.12 16.6, 4.2 16.8 M4.2 16.8 C2.91 18.78, 0.27 15.9, 0 12.6 M4.2 16.8 C3.1 17.29, 0.14 14.94, 0 12.6 M0 12.6 C0.55 9.66, 0.35 7.75, 0 4.2 M0 12.6 C0.22 10.23, 0.39 7.15, 0 4.2 M0 4.2 C1.29 1.34, 3.25 -0.95, 4.2 0 M0 4.2 C-1.34 -0.34, 1.65 0.32, 4.2 0" stroke="#1e1e1e" stroke-width="2" fill="none"></path></g><g stroke-linecap="round" transform="translate(408.59996032714844 335.2000427246094) rotate(0 40.800018310546875 8.399993896484375)"><path d="M4.2 0 C24.32 3.2, 38.51 -1.62, 77.4 0 C80.37 1.93, 84.78 3.16, 81.6 4.2 C81.87 7.73, 82.65 9.46, 81.6 12.6 C79.47 12.73, 83.77 18.18, 77.4 16.8 C59.69 18.84, 43.46 15.25, 4.2 16.8 C1.59 14.03, 1.3 12.51, 0 12.6 C0.84 9.62, -0.23 9.95, 0 4.2 C1.93 4.75, 1.42 0.27, 4.2 0" stroke="none" stroke-width="0" fill="#1971c2"></path><path d="M4.2 0 C31.41 2.68, 58.93 1.57, 77.4 0 M4.2 0 C31.2 -0.85, 55.54 0.06, 77.4 0 M77.4 0 C78.55 0.56, 82.75 1.66, 81.6 4.2 M77.4 0 C82.1 2.03, 81.09 1.36, 81.6 4.2 M81.6 4.2 C81.74 7.33, 81.69 10.15, 81.6 12.6 M81.6 4.2 C81.93 6.66, 81.67 8.4, 81.6 12.6 M81.6 12.6 C83.08 15.82, 80.32 16.4, 77.4 16.8 M81.6 12.6 C81.52 13.79, 82.39 18.16, 77.4 16.8 M77.4 16.8 C59.9 15.21, 41.94 17.64, 4.2 16.8 M77.4 16.8 C49.3 16.87, 20.83 16.43, 4.2 16.8 M4.2 16.8 C0.23 15.29, 0.22 15.67, 0 12.6 M4.2 16.8 C0.15 16.74, -0.8 16.61, 0 12.6 M0 12.6 C-0.71 9.54, -0.27 5.57, 0 4.2 M0 12.6 C-0.1 10.76, 0.26 9.04, 0 4.2 M0 4.2 C0.3 1.25, -0.3 -0.69, 4.2 0 M0 4.2 C-1 2.64, -0.2 1.62, 4.2 0" stroke="#1e1e1e" stroke-width="2" fill="none"></path></g><g stroke-linecap="round" transform="translate(405.3999481201172 308.39996337890625) rotate(0 40.800018310546875 8.399993896484375)"><path d="M4.2 0 C29.82 0.11, 59.9 3.84, 77.4 0 C82.62 -3.14, 80.01 -0.24, 81.6 4.2 C82.29 7.14, 81.55 8.15, 81.6 12.6 C78.97 18.93, 82.99 15.18, 77.4 16.8 C49.21 14.66, 23.55 19.75, 4.2 16.8 C1.08 19.42, 2.86 14.19, 0 12.6 C1.32 10.07, 0.24 9.46, 0 4.2 C0.49 1.14, -0.86 -0.24, 4.2 0" stroke="none" stroke-width="0" fill="#1971c2"></path><path d="M4.2 0 C31.69 1.38, 58.33 -1.64, 77.4 0 M4.2 0 C20.09 -0.13, 36.72 0.43, 77.4 0 M77.4 0 C82.01 -0.45, 83.08 -0.34, 81.6 4.2 M77.4 0 C80.8 -0.8, 80.31 -0.28, 81.6 4.2 M81.6 4.2 C81.66 6.61, 82.03 8.33, 81.6 12.6 M81.6 4.2 C81.35 6.88, 81.24 9.41, 81.6 12.6 M81.6 12.6 C80.39 17.21, 80.7 18.24, 77.4 16.8 M81.6 12.6 C83.86 14.93, 79.37 16.91, 77.4 16.8 M77.4 16.8 C50.37 17.41, 25.1 17.49, 4.2 16.8 M77.4 16.8 C47.61 16.63, 19.99 17.75, 4.2 16.8 M4.2 16.8 C0.01 17.08, 1.4 14.93, 0 12.6 M4.2 16.8 C2.11 16.68, -1.58 15.52, 0 12.6 M0 12.6 C-0.65 10.93, -0.47 9.34, 0 4.2 M0 12.6 C0.24 11.07, 0.01 8.79, 0 4.2 M0 4.2 C0.03 3.16, 3.19 1.37, 4.2 0 M0 4.2 C1.9 3.01, 1.74 0.53, 4.2 0" stroke="#1e1e1e" stroke-width="2" fill="none"></path></g><g stroke-linecap="round" transform="translate(544.7999725341797 155.79998779296875) rotate(0 105.60000610351562 36.399993896484375)"><path d="M18.2 0 C74.67 -2.69, 131.43 -2.93, 193 0 C206.56 0.67, 212.36 7.66, 211.2 18.2 C213.2 25.07, 209.47 34.27, 211.2 54.6 C210.53 67.94, 202.72 75.12, 193 72.8 C134.71 70.94, 78.26 73.3, 18.2 72.8 C8.57 76.12, -1.51 64.12, 0 54.6 C-0.23 38.86, -0.15 29.32, 0 18.2 C1.4 6.66, 9.53 -1.73, 18.2 0" stroke="none" stroke-width="0" fill="#1971c2"></path><path d="M18.2 0 C74.63 -2.43, 131.97 -0.64, 193 0 M18.2 0 C86.2 0.73, 154.11 1.99, 193 0 M193 0 C206.5 1.56, 210.01 4.58, 211.2 18.2 M193 0 C207.42 0.88, 209.6 6.39, 211.2 18.2 M211.2 18.2 C211.01 30.3, 211.22 43.6, 211.2 54.6 M211.2 18.2 C211.15 29.91, 211.48 41.96, 211.2 54.6 M211.2 54.6 C210.94 68.25, 206.2 74.66, 193 72.8 M211.2 54.6 C211.21 66.9, 205.17 74.82, 193 72.8 M193 72.8 C126.32 74.54, 57.3 75.49, 18.2 72.8 M193 72.8 C142.77 73.1, 93.64 73.03, 18.2 72.8 M18.2 72.8 C4.32 71.92, -0.91 66.36, 0 54.6 M18.2 72.8 C4.82 71.57, 1.18 67.61, 0 54.6 M0 54.6 C2.15 45.15, -0.72 33.77, 0 18.2 M0 54.6 C-0.26 41.12, 1.16 28.33, 0 18.2 M0 18.2 C1.46 7.65, 5.4 -0.99, 18.2 0 M0 18.2 C2.03 6.78, 8.28 -0.65, 18.2 0" stroke="#1e1e1e" stroke-width="2" fill="none"></path></g><g transform="translate(562.1500549316406 167.19998168945312) rotate(0 88.24992370605469 25)"><text x="88.24992370605469" y="0" font-family="Virgil, Segoe UI Emoji" font-size="20px" fill="#ffffff" text-anchor="middle" style="white-space: pre;" direction="ltr" dominant-baseline="text-before-edge">LIBUV</text><text x="88.24992370605469" y="25" font-family="Virgil, Segoe UI Emoji" font-size="20px" fill="#ffffff" text-anchor="middle" style="white-space: pre;" direction="ltr" dominant-baseline="text-before-edge">(Asynchronous LO)</text></g><g stroke-linecap="round" transform="translate(809.8000335693359 275.5998840332031) rotate(0 40.800018310546875 8.399993896484375)"><path d="M4.2 0 C24.67 -0.52, 44.07 -3.21, 77.4 0 C78.07 1.75, 82.49 2.84, 81.6 4.2 C81.16 6.51, 83.04 8.57, 81.6 12.6 C81.71 12.18, 82.99 16.45, 77.4 16.8 C59.49 15.65, 45.69 18.9, 4.2 16.8 C-1.77 16.41, -0.44 13.93, 0 12.6 C-1.34 8.65, 0.02 7.7, 0 4.2 C-2.55 -1.81, 0.66 -3.46, 4.2 0" stroke="none" stroke-width="0" fill="#1971c2"></path><path d="M4.2 0 C28.01 0.25, 55.08 0.71, 77.4 0 M4.2 0 C21.97 1.25, 39.07 0.08, 77.4 0 M77.4 0 C78.55 0.9, 80.37 2.57, 81.6 4.2 M77.4 0 C78.4 -0.77, 82.85 3.67, 81.6 4.2 M81.6 4.2 C81 6.05, 81.86 9.54, 81.6 12.6 M81.6 4.2 C81.57 5.99, 81.63 7.84, 81.6 12.6 M81.6 12.6 C79.99 15.17, 81.42 17.93, 77.4 16.8 M81.6 12.6 C80.2 15.85, 81.68 16.81, 77.4 16.8 M77.4 16.8 C50.62 15.05, 21.11 15.87, 4.2 16.8 M77.4 16.8 C51.34 17.74, 24.39 17.64, 4.2 16.8 M4.2 16.8 C2.28 16.15, -1.42 17.03, 0 12.6 M4.2 16.8 C1.86 17.59, 2.26 14.16, 0 12.6 M0 12.6 C0.79 10.68, 0.9 7.84, 0 4.2 M0 12.6 C0.07 9.74, -0.38 7.22, 0 4.2 M0 4.2 C0.5 -0.52, -0.51 -1.86, 4.2 0 M0 4.2 C1.62 0.74, 1.9 -1.93, 4.2 0" stroke="#1e1e1e" stroke-width="2" fill="none"></path></g><g stroke-linecap="round" transform="translate(810.3999481201172 302.9999694824219) rotate(0 40.800018310546875 8.399993896484375)"><path d="M4.2 0 C23.11 2.01, 40.51 -3.25, 77.4 0 C76.93 3.55, 81.15 -0.42, 81.6 4.2 C81.91 5.62, 80.25 8.46, 81.6 12.6 C79.08 12.96, 81.99 14.05, 77.4 16.8 C52.11 19.02, 30.27 16.55, 4.2 16.8 C-0.98 15.83, 1.38 17.21, 0 12.6 C1.24 9.36, 1.14 6.35, 0 4.2 C-1.4 -2.18, 1.81 2.4, 4.2 0" stroke="none" stroke-width="0" fill="#1971c2"></path><path d="M4.2 0 C30.99 0.92, 55.21 2.49, 77.4 0 M4.2 0 C22.12 1.42, 41.02 1.56, 77.4 0 M77.4 0 C81.3 -0.05, 82.32 -0.29, 81.6 4.2 M77.4 0 C80.77 -1.98, 79.68 -0.67, 81.6 4.2 M81.6 4.2 C80.74 7.52, 81.28 9.84, 81.6 12.6 M81.6 4.2 C81.68 6.16, 81.55 7.99, 81.6 12.6 M81.6 12.6 C80.01 14.22, 81.17 17.29, 77.4 16.8 M81.6 12.6 C82.52 15.54, 82.32 18.34, 77.4 16.8 M77.4 16.8 C57.2 17.49, 37.26 18.98, 4.2 16.8 M77.4 16.8 C55.2 16.39, 34.93 17, 4.2 16.8 M4.2 16.8 C3.27 15.04, -0.22 15.15, 0 12.6 M4.2 16.8 C0.46 17.08, -1.16 13.93, 0 12.6 M0 12.6 C0.27 10.27, -0.67 8.96, 0 4.2 M0 12.6 C0.03 10.97, -0.26 9.11, 0 4.2 M0 4.2 C1.06 3.37, -0.23 -1.17, 4.2 0 M0 4.2 C0.91 2.61, 2.73 -1.04, 4.2 0" stroke="#1e1e1e" stroke-width="2" fill="none"></path></g><g stroke-linecap="round" transform="translate(810.3999481201172 333.4000244140625) rotate(0 40.800018310546875 8.399993896484375)"><path d="M4.2 0 C26.33 4.85, 54.55 -0.52, 77.4 0 C80.83 -2.37, 81.36 2.38, 81.6 4.2 C80.42 5, 82.23 6.7, 81.6 12.6 C83.09 16.16, 82.82 16.5, 77.4 16.8 C50.5 15.38, 29.73 18.17, 4.2 16.8 C2.73 17.04, -1.28 18.38, 0 12.6 C-0.7 8.8, 0.06 9.02, 0 4.2 C0.79 0.1, 2.51 -1.57, 4.2 0" stroke="none" stroke-width="0" fill="#1971c2"></path><path d="M4.2 0 C26.54 -0.5, 49.49 -0.89, 77.4 0 M4.2 0 C32.99 -0.75, 61.03 -1.57, 77.4 0 M77.4 0 C80.69 -1.72, 79.93 -0.4, 81.6 4.2 M77.4 0 C80.78 -2.21, 79.41 -0.74, 81.6 4.2 M81.6 4.2 C80.87 7, 81.22 10.65, 81.6 12.6 M81.6 4.2 C81.26 6.75, 81.8 9.91, 81.6 12.6 M81.6 12.6 C82.4 15.52, 82.05 18.14, 77.4 16.8 M81.6 12.6 C80.73 15, 82.18 15.63, 77.4 16.8 M77.4 16.8 C55.01 15.74, 33.32 15.46, 4.2 16.8 M77.4 16.8 C60.23 15.98, 41.08 16.74, 4.2 16.8 M4.2 16.8 C0.58 17.04, -1.01 14.12, 0 12.6 M4.2 16.8 C-0.75 14.77, -0.08 15.93, 0 12.6 M0 12.6 C-0.73 9.91, 0.45 8.66, 0 4.2 M0 12.6 C0.29 10.33, -0.27 6.98, 0 4.2 M0 4.2 C0.79 2.45, 2.56 -0.91, 4.2 0 M0 4.2 C-1.02 3.26, 0.85 0.13, 4.2 0" stroke="#1e1e1e" stroke-width="2" fill="none"></path></g><g stroke-linecap="round" transform="translate(812.7999725341797 361.5999755859375) rotate(0 40.800018310546875 8.399993896484375)"><path d="M4.2 0 C34 -1.7, 62.3 1.65, 77.4 0 C77.22 -2.98, 79.05 -1.12, 81.6 4.2 C82.3 6.47, 82.77 7.98, 81.6 12.6 C82.86 18.26, 78.99 14.42, 77.4 16.8 C58.75 17.7, 36.16 20.45, 4.2 16.8 C0.43 19.55, -1.41 14, 0 12.6 C0.32 10.37, 0.45 8.57, 0 4.2 C-2.13 1.17, 2.91 1.48, 4.2 0" stroke="none" stroke-width="0" fill="#1971c2"></path><path d="M4.2 0 C28.69 1.7, 51.73 1.16, 77.4 0 M4.2 0 C26.23 -0.24, 46.93 -0.28, 77.4 0 M77.4 0 C80.7 -1.92, 79.69 -0.46, 81.6 4.2 M77.4 0 C81.82 -0.66, 82.1 -0.53, 81.6 4.2 M81.6 4.2 C81.85 6.37, 81.88 7.96, 81.6 12.6 M81.6 4.2 C81.81 6.25, 82.03 8.53, 81.6 12.6 M81.6 12.6 C80.84 15.05, 81.92 15.78, 77.4 16.8 M81.6 12.6 C81.67 13.35, 81.98 16.58, 77.4 16.8 M77.4 16.8 C60.34 16.16, 45.55 17.97, 4.2 16.8 M77.4 16.8 C61.48 16.83, 45.87 16.07, 4.2 16.8 M4.2 16.8 C-0.47 15.04, -0.07 15.86, 0 12.6 M4.2 16.8 C-0.23 14.75, -0.47 13.19, 0 12.6 M0 12.6 C0.13 10.16, -0.16 9.53, 0 4.2 M0 12.6 C0.23 9.47, 0.31 5.71, 0 4.2 M0 4.2 C-0.89 3.02, 0.92 0.11, 4.2 0 M0 4.2 C1.08 0.69, -0.88 -2.09, 4.2 0" stroke="#1e1e1e" stroke-width="2" fill="none"></path></g><g stroke-linecap="round" transform="translate(813.6000213623047 392) rotate(0 40.800018310546875 8.399993896484375)"><path d="M4.2 0 C18.37 -3.34, 35.94 -2.88, 77.4 0 C77.76 1.79, 78.85 2.89, 81.6 4.2 C82.24 8.1, 81.2 8.6, 81.6 12.6 C80.63 16.78, 82.01 18.13, 77.4 16.8 C53.98 20.64, 31.11 16.5, 4.2 16.8 C-2.18 17.21, 2.4 16.19, 0 12.6 C-0.94 10.29, 0.59 8.78, 0 4.2 C1.16 1.61, -0.71 -1.18, 4.2 0" stroke="none" stroke-width="0" fill="#1971c2"></path><path d="M4.2 0 C32.11 0.32, 58.43 0.09, 77.4 0 M4.2 0 C20.12 -0.3, 34.59 -0.27, 77.4 0 M77.4 0 C81.61 -0.57, 82.03 -0.28, 81.6 4.2 M77.4 0 C79.35 -0.99, 82.23 2.17, 81.6 4.2 M81.6 4.2 C81.13 7.09, 81.84 9.5, 81.6 12.6 M81.6 4.2 C81.52 6.7, 82.04 9.13, 81.6 12.6 M81.6 12.6 C81.66 13.61, 81.75 16.61, 77.4 16.8 M81.6 12.6 C79.73 15.76, 78 15.59, 77.4 16.8 M77.4 16.8 C53.47 17.26, 32.81 16.66, 4.2 16.8 M77.4 16.8 C53.61 15.45, 31.66 16.56, 4.2 16.8 M4.2 16.8 C-0.02 15.02, -0.41 13.48, 0 12.6 M4.2 16.8 C-0.69 17.84, -0.26 15.86, 0 12.6 M0 12.6 C0.84 10.08, -0.48 9.26, 0 4.2 M0 12.6 C-0.24 9.98, -0.15 6.7, 0 4.2 M0 4.2 C0.94 0.78, -0.58 -1.81, 4.2 0 M0 4.2 C2.27 1.11, 0.23 0.4, 4.2 0" stroke="#1e1e1e" stroke-width="2" fill="none"></path></g><g stroke-linecap="round" transform="translate(815.1999969482422 423.199951171875) rotate(0 40.800018310546875 8.399993896484375)"><path d="M4.2 0 C17.67 2.71, 33.26 2.42, 77.4 0 C80.96 2.62, 81.3 2.66, 81.6 4.2 C81.14 7.97, 82.31 11.13, 81.6 12.6 C81.84 14.12, 83.18 15.83, 77.4 16.8 C46.28 16.7, 24.71 17.08, 4.2 16.8 C0.1 17.91, -1.57 13.27, 0 12.6 C0.43 10.22, -0.95 7.17, 0 4.2 C-1.8 -2.1, -1.67 -2.97, 4.2 0" stroke="none" stroke-width="0" fill="#1971c2"></path><path d="M4.2 0 C27.09 -1.85, 51.61 0.32, 77.4 0 M4.2 0 C19.83 0.39, 34.26 -0.16, 77.4 0 M77.4 0 C79.46 -0.86, 82.15 2.07, 81.6 4.2 M77.4 0 C80.1 0.86, 79.78 0.04, 81.6 4.2 M81.6 4.2 C81.67 7.9, 82.18 9.74, 81.6 12.6 M81.6 4.2 C81.69 6.2, 82 8.91, 81.6 12.6 M81.6 12.6 C79.97 15.71, 78.29 15.75, 77.4 16.8 M81.6 12.6 C81.67 15.6, 82.35 14.77, 77.4 16.8 M77.4 16.8 C56.48 15.5, 33.8 14.63, 4.2 16.8 M77.4 16.8 C61.18 16.08, 46.17 16.01, 4.2 16.8 M4.2 16.8 C-0.41 17.7, -0.23 15.8, 0 12.6 M4.2 16.8 C-0.47 16.48, 1.22 17.67, 0 12.6 M0 12.6 C0.49 11.25, -0.33 8.56, 0 4.2 M0 12.6 C0.22 9.27, -0.4 5.82, 0 4.2 M0 4.2 C1.97 1.15, 0.39 0.35, 4.2 0 M0 4.2 C-1.51 1.24, 2.03 -1.9, 4.2 0" stroke="#1e1e1e" stroke-width="2" fill="none"></path></g><g stroke-linecap="round" transform="translate(809.0000457763672 246.59994506835938) rotate(0 40.800018310546875 8.399993896484375)"><path d="M4.2 0 C20.32 0.98, 37.44 -1.65, 77.4 0 C77.65 -2.73, 78.5 2.12, 81.6 4.2 C80.44 6.22, 80.78 8.13, 81.6 12.6 C83.44 14.67, 80.03 14.58, 77.4 16.8 C46.45 17.56, 23.77 19.25, 4.2 16.8 C-0.88 18.61, -2.82 15.13, 0 12.6 C0.77 10.83, 1.2 9.22, 0 4.2 C0.33 -1.75, 2.12 -2.32, 4.2 0" stroke="none" stroke-width="0" fill="#1971c2"></path><path d="M4.2 0 C28.85 -0.57, 52.24 -1.65, 77.4 0 M4.2 0 C27.17 -0.27, 50.74 0.2, 77.4 0 M77.4 0 C80.78 -0.6, 83.42 2.9, 81.6 4.2 M77.4 0 C80.09 -2.29, 80.76 0.82, 81.6 4.2 M81.6 4.2 C81.94 6.45, 81.12 8.63, 81.6 12.6 M81.6 4.2 C81.19 7.05, 81.43 10.36, 81.6 12.6 M81.6 12.6 C82.62 15.63, 81.01 15.04, 77.4 16.8 M81.6 12.6 C83.87 14.44, 81.73 18.59, 77.4 16.8 M77.4 16.8 C57.51 15.13, 36.66 15.99, 4.2 16.8 M77.4 16.8 C54.17 16.8, 29.1 17.33, 4.2 16.8 M4.2 16.8 C2.77 17.5, -0.98 14.18, 0 12.6 M4.2 16.8 C2.7 17.4, -0.24 16.04, 0 12.6 M0 12.6 C-0.44 11.09, -0.19 9.72, 0 4.2 M0 12.6 C-0.14 9.47, 0.2 5.7, 0 4.2 M0 4.2 C-1.88 -0.07, 1.76 1.01, 4.2 0 M0 4.2 C-1.15 0.06, -0.5 0.87, 4.2 0" stroke="#1e1e1e" stroke-width="2" fill="none"></path></g><g transform="translate(406.13597106933594 211.29998779296875) rotate(0 45.863983154296875 35)"><text x="45.863983154296875" y="0" font-family="Virgil, Segoe UI Emoji" font-size="28px" fill="#1e1e1e" text-anchor="middle" style="white-space: pre;" direction="ltr" dominant-baseline="text-before-edge">Event </text><text x="45.863983154296875" y="35" font-family="Virgil, Segoe UI Emoji" font-size="28px" fill="#1e1e1e" text-anchor="middle" style="white-space: pre;" direction="ltr" dominant-baseline="text-before-edge">Queue</text></g><g transform="translate(803.5359954833984 172.99996948242188) rotate(0 45.863983154296875 35)"><text x="45.863983154296875" y="0" font-family="Virgil, Segoe UI Emoji" font-size="28px" fill="#1e1e1e" text-anchor="middle" style="white-space: pre;" direction="ltr" dominant-baseline="text-before-edge">Event </text><text x="45.863983154296875" y="35" font-family="Virgil, Segoe UI Emoji" font-size="28px" fill="#1e1e1e" text-anchor="middle" style="white-space: pre;" direction="ltr" dominant-baseline="text-before-edge">Queue</text></g><g transform="translate(562.3999786376953 320.39996337890625) rotate(0 52.000030517578125 32.00001525878906)" stroke="none"><path fill="#1e1e1e" d="M -2.47,-0.61 Q -2.47,-0.61 -2.27,-1.57 -2.07,-2.52 -1.37,-3.77 -0.67,-5.01 0.40,-6.23 1.48,-7.44 3.16,-8.37 4.83,-9.30 6.63,-10.63 8.43,-11.97 9.60,-12.35 10.78,-12.72 12.09,-13.04 13.40,-13.36 14.92,-13.95 16.45,-14.55 18.20,-14.88 19.95,-15.20 21.65,-15.44 23.36,-15.67 24.84,-16.15 26.32,-16.62 27.91,-16.93 29.50,-17.24 30.89,-17.39 32.29,-17.53 34.16,-17.68 36.04,-17.83 37.69,-17.91 39.35,-17.98 40.92,-17.94 42.48,-17.89 44.07,-17.84 45.65,-17.80 48.05,-17.40 50.45,-17.00 52.06,-16.88 53.67,-16.77 55.24,-16.50 56.80,-16.23 58.18,-15.58 59.57,-14.93 60.93,-14.52 62.30,-14.11 63.38,-13.67 64.47,-13.23 66.72,-12.56 68.97,-11.89 70.23,-11.48 71.49,-11.06 73.10,-10.33 74.71,-9.60 76.01,-9.11 77.30,-8.62 78.56,-7.86 79.83,-7.09 81.53,-6.65 83.23,-6.22 84.39,-5.85 85.54,-5.48 87.05,-4.78 88.56,-4.09 89.68,-3.58 90.79,-3.08 91.79,-2.23 92.80,-1.37 93.83,-1.06 94.87,-0.75 96.18,0.44 97.50,1.65 98.82,2.93 100.14,4.20 101.09,5.72 102.04,7.24 103.03,9.36 104.02,11.47 104.19,12.80 104.36,14.12 104.58,15.36 104.80,16.60 104.79,18.77 104.79,20.94 105.02,22.31 105.26,23.69 105.40,25.14 105.54,26.59 105.97,27.61 106.40,28.63 106.94,30.42 107.49,32.21 107.55,33.32 107.61,34.43 107.66,36.42 107.72,38.40 108.09,40.74 108.46,43.08 108.57,44.56 108.68,46.04 108.70,47.56 108.73,49.08 108.14,50.87 107.55,52.66 107.00,54.50 106.45,56.33 106.05,57.40 105.64,58.47 104.97,59.73 104.29,60.98 103.76,62.06 103.24,63.14 102.39,64.24 101.53,65.34 100.91,67.04 100.28,68.74 99.34,69.85 98.40,70.96 97.11,72.34 95.81,73.73 94.73,74.74 93.65,75.76 92.90,76.70 92.15,77.64 90.59,79.40 89.03,81.16 88.65,81.53 88.27,81.90 87.79,82.13 87.31,82.36 86.78,82.42 86.25,82.48 85.73,82.37 85.21,82.26 84.75,81.99 84.29,81.72 83.94,81.32 83.59,80.92 83.39,80.43 83.19,79.93 83.15,79.40 83.12,78.87 83.26,78.36 83.40,77.84 83.69,77.40 83.98,76.95 84.41,76.63 84.83,76.30 85.33,76.13 85.83,75.95 86.37,75.95 86.90,75.94 87.40,76.11 87.91,76.27 88.34,76.59 88.76,76.91 89.07,77.35 89.37,77.79 89.52,78.30 89.66,78.81 89.64,79.34 89.62,79.87 89.42,80.37 89.23,80.87 88.89,81.27 88.55,81.68 88.10,81.96 87.64,82.24 87.12,82.36 86.60,82.48 86.07,82.43 85.54,82.37 85.06,82.16 84.57,81.94 84.18,81.57 83.79,81.21 83.54,80.74 83.29,80.27 83.19,79.75 83.10,79.22 83.19,78.70 83.27,78.17 83.51,77.70 83.76,77.23 83.76,77.23 83.76,77.23 85.26,75.59 86.77,73.95 87.42,73.04 88.07,72.12 89.33,70.90 90.59,69.68 91.53,68.98 92.48,68.28 93.44,67.21 94.40,66.15 95.05,64.84 95.69,63.54 96.51,62.32 97.32,61.11 98.09,59.50 98.85,57.88 99.49,56.51 100.13,55.14 100.72,54.12 101.30,53.09 101.54,51.87 101.79,50.65 102.11,48.95 102.44,47.24 102.45,46.05 102.47,44.86 102.45,43.69 102.43,42.51 102.14,40.48 101.85,38.44 101.86,36.54 101.87,34.64 101.82,33.02 101.77,31.40 101.13,29.22 100.50,27.04 100.40,25.82 100.30,24.60 99.98,22.92 99.65,21.25 99.41,19.49 99.17,17.73 98.84,16.23 98.51,14.73 98.36,13.39 98.22,12.05 97.25,10.32 96.27,8.59 95.51,7.58 94.75,6.57 93.81,5.30 92.86,4.03 90.67,2.83 88.47,1.62 87.47,1.14 86.47,0.65 85.17,0.10 83.86,-0.43 82.73,-0.82 81.59,-1.21 80.54,-1.59 79.48,-1.96 77.51,-3.02 75.54,-4.07 74.16,-4.60 72.79,-5.13 71.36,-5.71 69.93,-6.28 67.55,-7.24 65.16,-8.21 63.07,-8.94 60.97,-9.68 58.42,-10.72 55.86,-11.76 54.64,-12.03 53.41,-12.31 51.70,-12.39 49.99,-12.47 47.82,-12.53 45.65,-12.59 44.07,-12.55 42.49,-12.50 40.93,-12.45 39.37,-12.40 37.75,-12.45 36.14,-12.50 34.42,-12.52 32.71,-12.54 31.54,-12.47 30.38,-12.39 29.18,-12.20 27.98,-12.00 26.15,-11.28 24.33,-10.56 21.62,-10.03 18.92,-9.50 16.83,-8.78 14.74,-8.06 13.45,-7.72 12.16,-7.38 10.80,-6.96 9.44,-6.54 7.40,-5.19 5.37,-3.84 4.18,-2.50 2.99,-1.15 2.73,-0.26 2.47,0.61 2.36,0.90 2.25,1.19 2.07,1.44 1.90,1.69 1.67,1.90 1.44,2.10 1.16,2.24 0.89,2.38 0.59,2.46 0.29,2.53 -0.00,2.53 -0.31,2.53 -0.61,2.45 -0.91,2.38 -1.18,2.23 -1.45,2.09 -1.68,1.88 -1.91,1.68 -2.08,1.43 -2.26,1.17 -2.37,0.88 -2.47,0.60 -2.51,0.29 -2.55,-0.00 -2.51,-0.31 -2.47,-0.61 -2.47,-0.61 L -2.47,-0.61 Z"></path></g><g transform="translate(644.0000152587891 390) rotate(0 6.4000244140625 8.79998779296875)" stroke="none"><path fill="#1e1e1e" d="M 2.31,1.15 Q 2.31,1.15 1.59,2.52 0.88,3.89 0.40,5.07 -0.07,6.25 -0.24,7.48 -0.42,8.70 -1.11,10.01 -1.79,11.32 -1.86,12.86 -1.94,14.39 0.14,14.51 2.22,14.62 3.97,14.61 5.71,14.59 7.11,14.55 8.50,14.51 9.68,14.49 10.87,14.46 12.16,14.12 13.46,13.78 14.81,12.91 16.16,12.04 16.60,11.74 17.03,11.45 17.54,11.31 18.04,11.17 18.57,11.20 19.09,11.22 19.58,11.42 20.07,11.61 20.47,11.95 20.87,12.29 21.14,12.74 21.41,13.19 21.52,13.71 21.64,14.22 21.58,14.74 21.52,15.26 21.30,15.74 21.08,16.22 20.72,16.60 20.36,16.98 19.90,17.22 19.43,17.47 18.91,17.56 18.40,17.64 17.88,17.56 17.36,17.47 16.89,17.23 16.43,16.98 16.07,16.60 15.71,16.22 15.49,15.74 15.27,15.26 15.21,14.74 15.15,14.22 15.27,13.71 15.38,13.19 15.65,12.74 15.92,12.29 16.32,11.95 16.72,11.61 17.21,11.42 17.70,11.22 18.22,11.20 18.75,11.17 19.25,11.31 19.76,11.45 20.19,11.74 20.63,12.04 20.95,12.46 21.26,12.87 21.43,13.37 21.60,13.87 21.60,14.39 21.60,14.92 21.43,15.42 21.26,15.92 20.95,16.33 20.63,16.75 20.63,16.75 20.63,16.75 18.49,18.05 16.35,19.35 14.80,19.71 13.26,20.07 12.17,20.40 11.08,20.73 9.79,20.70 8.50,20.67 7.09,20.63 5.69,20.59 3.90,20.54 2.11,20.50 0.84,20.49 -0.42,20.48 -1.86,20.45 -3.30,20.41 -4.74,20.04 -6.19,19.67 -6.93,18.70 -7.67,17.72 -7.60,15.82 -7.53,13.91 -7.27,12.38 -7.01,10.85 -6.16,9.31 -5.31,7.77 -5.04,6.06 -4.77,4.36 -4.21,2.99 -3.64,1.62 -2.97,0.23 -2.31,-1.15 -2.14,-1.41 -1.97,-1.67 -1.74,-1.88 -1.51,-2.10 -1.23,-2.25 -0.96,-2.40 -0.66,-2.48 -0.36,-2.56 -0.05,-2.56 0.26,-2.57 0.56,-2.50 0.87,-2.43 1.14,-2.29 1.42,-2.15 1.66,-1.95 1.90,-1.75 2.08,-1.50 2.26,-1.24 2.38,-0.95 2.50,-0.66 2.54,-0.35 2.58,-0.05 2.55,0.25 2.52,0.57 2.41,0.86 2.31,1.15 2.31,1.15 L 2.31,1.15 Z"></path></g><g transform="translate(627.2000274658203 415.5999755859375) rotate(0 -41.20001220703125 -41.99998474121094)" stroke="none"><path fill="#1e1e1e" d="M 0.82,2.47 Q 0.82,2.47 -0.55,2.92 -1.94,3.36 -4.09,3.77 -6.25,4.18 -7.74,4.30 -9.24,4.43 -11.39,4.46 -13.54,4.48 -15.56,4.51 -17.59,4.53 -19.13,4.57 -20.68,4.61 -22.42,4.81 -24.16,5.01 -25.50,5.12 -26.83,5.24 -28.41,5.34 -29.99,5.44 -31.70,5.51 -33.42,5.58 -34.83,5.60 -36.25,5.61 -37.37,5.59 -38.49,5.57 -40.18,4.97 -41.86,4.37 -43.13,3.93 -44.39,3.49 -45.90,2.71 -47.41,1.93 -48.28,1.23 -49.15,0.54 -50.26,-0.15 -51.38,-0.85 -52.55,-1.58 -53.73,-2.31 -54.86,-3.62 -55.99,-4.94 -57.27,-5.97 -58.54,-7.00 -59.59,-8.32 -60.64,-9.63 -62.46,-11.03 -64.29,-12.42 -65.23,-13.83 -66.17,-15.24 -66.90,-16.40 -67.62,-17.55 -68.96,-19.09 -70.30,-20.63 -71.10,-22.01 -71.91,-23.39 -72.58,-24.50 -73.26,-25.62 -74.46,-27.26 -75.67,-28.90 -76.77,-30.31 -77.87,-31.72 -78.92,-33.19 -79.97,-34.66 -80.43,-36.19 -80.88,-37.71 -81.68,-39.02 -82.49,-40.33 -82.86,-41.68 -83.23,-43.03 -83.42,-44.18 -83.61,-45.33 -84.05,-46.82 -84.49,-48.32 -84.71,-50.35 -84.92,-52.39 -85.01,-53.63 -85.11,-54.86 -85.15,-56.11 -85.19,-57.35 -85.26,-58.99 -85.33,-60.62 -85.35,-62.69 -85.36,-64.77 -85.35,-65.93 -85.35,-67.08 -85.38,-68.80 -85.41,-70.52 -85.40,-71.63 -85.40,-72.75 -85.39,-73.92 -85.38,-75.09 -85.11,-76.39 -84.85,-77.69 -84.49,-78.86 -84.13,-80.04 -83.41,-81.44 -82.68,-82.84 -82.19,-83.80 -81.70,-84.77 -79.89,-86.66 -78.08,-88.54 -77.69,-88.82 -77.29,-89.10 -76.82,-89.23 -76.36,-89.37 -75.88,-89.35 -75.39,-89.33 -74.94,-89.16 -74.49,-88.98 -74.11,-88.67 -73.74,-88.37 -73.48,-87.95 -73.23,-87.54 -73.12,-87.07 -73.01,-86.60 -73.05,-86.12 -73.10,-85.63 -73.30,-85.19 -73.49,-84.75 -73.82,-84.39 -74.15,-84.04 -74.57,-83.80 -75.00,-83.57 -75.48,-83.48 -75.95,-83.40 -76.43,-83.47 -76.91,-83.54 -77.34,-83.76 -77.78,-83.99 -78.11,-84.33 -78.45,-84.68 -78.66,-85.12 -78.87,-85.55 -78.93,-86.04 -78.99,-86.52 -78.89,-86.99 -78.79,-87.47 -78.55,-87.88 -78.30,-88.30 -77.94,-88.62 -77.57,-88.94 -77.13,-89.13 -76.68,-89.31 -76.19,-89.34 -75.71,-89.38 -75.24,-89.25 -74.77,-89.13 -74.37,-88.86 -73.96,-88.60 -73.67,-88.22 -73.37,-87.83 -73.21,-87.38 -73.05,-86.92 -73.04,-86.43 -73.03,-85.95 -73.18,-85.49 -73.33,-85.03 -73.62,-84.64 -73.91,-84.25 -73.91,-84.25 -73.91,-84.25 -75.21,-83.13 -76.52,-82.01 -77.47,-80.16 -78.42,-78.31 -78.92,-76.68 -79.41,-75.06 -79.40,-73.90 -79.39,-72.75 -79.39,-71.64 -79.38,-70.52 -79.41,-68.80 -79.44,-67.09 -79.43,-65.93 -79.43,-64.77 -79.43,-62.73 -79.44,-60.68 -79.47,-59.11 -79.49,-57.53 -79.46,-56.41 -79.42,-55.29 -79.34,-54.19 -79.26,-53.10 -79.06,-51.83 -78.86,-50.55 -78.24,-48.97 -77.63,-47.38 -77.50,-46.04 -77.37,-44.70 -76.99,-43.37 -76.61,-42.05 -75.85,-40.81 -75.08,-39.57 -74.82,-37.96 -74.56,-36.36 -73.67,-35.43 -72.79,-34.50 -71.94,-33.32 -71.09,-32.14 -69.84,-30.33 -68.59,-28.53 -67.37,-26.47 -66.16,-24.42 -64.55,-22.52 -62.93,-20.62 -61.69,-18.68 -60.45,-16.74 -59.49,-15.95 -58.53,-15.17 -56.92,-13.62 -55.30,-12.07 -53.98,-11.23 -52.66,-10.40 -51.72,-9.01 -50.79,-7.62 -49.59,-7.01 -48.40,-6.41 -47.61,-5.60 -46.83,-4.80 -45.80,-4.01 -44.77,-3.23 -43.70,-2.73 -42.64,-2.24 -41.09,-1.83 -39.54,-1.42 -37.90,-1.11 -36.26,-0.81 -34.84,-0.80 -33.43,-0.78 -32.32,-0.75 -31.22,-0.72 -29.96,-0.71 -28.70,-0.69 -27.05,-0.79 -25.39,-0.89 -23.03,-1.15 -20.68,-1.41 -19.13,-1.37 -17.59,-1.33 -15.57,-1.31 -13.55,-1.29 -11.45,-1.28 -9.35,-1.27 -8.02,-1.25 -6.68,-1.23 -5.12,-1.38 -3.57,-1.52 -2.20,-2.00 -0.82,-2.47 -0.51,-2.54 -0.20,-2.60 0.10,-2.59 0.42,-2.57 0.72,-2.49 1.02,-2.40 1.29,-2.24 1.57,-2.08 1.79,-1.87 2.02,-1.65 2.19,-1.38 2.36,-1.11 2.46,-0.82 2.56,-0.52 2.58,-0.20 2.61,0.10 2.56,0.41 2.50,0.72 2.38,1.01 2.26,1.30 2.07,1.55 1.88,1.81 1.63,2.01 1.39,2.20 1.11,2.34 0.82,2.47 0.82,2.47 L 0.82,2.47 Z"></path></g><g transform="translate(551.2000274658203 329.1999816894531) rotate(0 5.199981689453125 6.79998779296875)" stroke="none"><path fill="#1e1e1e" d="M 1.50,-1.67 Q 1.50,-1.67 3.72,0.49 5.94,2.66 7.23,4.69 8.52,6.72 9.44,7.55 10.37,8.39 11.38,10.70 12.39,13.01 12.43,13.35 12.47,13.68 12.41,14.01 12.34,14.34 12.17,14.63 12.00,14.92 11.74,15.14 11.49,15.37 11.18,15.49 10.87,15.62 10.53,15.64 10.19,15.67 9.87,15.58 9.54,15.49 9.26,15.31 8.98,15.12 8.77,14.86 8.57,14.59 8.46,14.27 8.34,13.96 8.34,13.62 8.34,13.28 8.44,12.96 8.54,12.64 8.74,12.37 8.95,12.10 9.22,11.91 9.50,11.72 9.82,11.62 10.15,11.53 10.48,11.54 10.82,11.56 11.13,11.68 11.45,11.80 11.71,12.01 11.97,12.23 12.14,12.52 12.32,12.80 12.40,13.13 12.47,13.46 12.44,13.79 12.41,14.13 12.27,14.44 12.13,14.74 11.90,14.99 11.67,15.24 11.38,15.40 11.08,15.56 10.75,15.62 10.42,15.68 10.09,15.63 9.75,15.58 9.45,15.42 9.15,15.27 8.92,15.02 8.69,14.78 8.54,14.48 8.40,14.18 8.40,14.18 8.40,14.18 7.97,12.62 7.54,11.06 6.52,9.91 5.50,8.75 4.38,7.18 3.25,5.61 0.87,3.64 -1.50,1.67 -1.68,1.46 -1.85,1.26 -1.98,1.02 -2.10,0.78 -2.16,0.51 -2.23,0.25 -2.23,-0.01 -2.22,-0.28 -2.16,-0.55 -2.09,-0.81 -1.96,-1.05 -1.83,-1.29 -1.65,-1.49 -1.47,-1.69 -1.25,-1.84 -1.02,-1.99 -0.77,-2.09 -0.52,-2.18 -0.25,-2.21 0.01,-2.24 0.28,-2.21 0.55,-2.17 0.80,-2.07 1.05,-1.98 1.28,-1.82 1.50,-1.66 1.50,-1.67 L 1.50,-1.67 Z"></path></g><g transform="translate(554.3999786376953 327.5999755859375) rotate(0 -10.79998779296875 -0.8000030517578125)" stroke="none"><path fill="#1e1e1e" d="M -1.16,2.33 Q -1.16,2.33 -2.52,1.62 -3.88,0.90 -5.96,0.63 -8.03,0.37 -9.70,0.37 -11.36,0.37 -12.74,0.42 -14.12,0.47 -15.52,0.85 -16.92,1.23 -18.59,2.43 -20.26,3.62 -20.75,3.76 -21.23,3.89 -21.74,3.87 -22.24,3.85 -22.71,3.67 -23.18,3.48 -23.57,3.16 -23.96,2.83 -24.22,2.40 -24.48,1.97 -24.60,1.48 -24.71,0.99 -24.66,0.49 -24.61,-0.01 -24.40,-0.47 -24.19,-0.93 -23.85,-1.29 -23.50,-1.66 -23.06,-1.90 -22.62,-2.14 -22.12,-2.23 -21.62,-2.32 -21.12,-2.24 -20.62,-2.16 -20.17,-1.93 -19.73,-1.69 -19.38,-1.33 -19.03,-0.97 -18.81,-0.51 -18.59,-0.05 -18.54,0.44 -18.48,0.94 -18.58,1.43 -18.69,1.93 -18.94,2.36 -19.20,2.80 -19.58,3.13 -19.96,3.46 -20.43,3.65 -20.90,3.84 -21.40,3.87 -21.91,3.90 -22.40,3.77 -22.88,3.64 -23.30,3.36 -23.72,3.08 -24.03,2.68 -24.34,2.28 -24.51,1.80 -24.67,1.32 -24.67,0.82 -24.68,0.31 -24.52,-0.16 -24.36,-0.64 -24.06,-1.04 -23.76,-1.44 -23.34,-1.73 -22.93,-2.02 -22.93,-2.02 -22.93,-2.02 -21.42,-2.96 -19.90,-3.91 -18.65,-4.26 -17.40,-4.62 -15.74,-4.94 -14.08,-5.26 -12.66,-5.18 -11.24,-5.10 -9.38,-4.95 -7.51,-4.80 -6.12,-4.63 -4.74,-4.47 -3.18,-4.06 -1.63,-3.66 -0.23,-3.00 1.16,-2.33 1.42,-2.16 1.69,-1.98 1.90,-1.75 2.11,-1.52 2.27,-1.24 2.42,-0.97 2.50,-0.66 2.58,-0.36 2.59,-0.05 2.59,0.26 2.52,0.57 2.45,0.87 2.31,1.15 2.17,1.44 1.97,1.68 1.76,1.91 1.51,2.10 1.25,2.28 0.96,2.40 0.67,2.52 0.36,2.56 0.05,2.60 -0.26,2.57 -0.57,2.54 -0.87,2.44 -1.16,2.33 -1.16,2.33 L -1.16,2.33 Z"></path></g><g transform="translate(298.3999786376953 173.99996948242188) rotate(0 0.00004999999998744897 0.00004999999998744897)" stroke="none"><path fill="#1e1e1e" d="M 1.57,-1.57 Q 1.57,-1.57 1.77,-1.27 1.98,-0.98 2.09,-0.64 2.20,-0.29 2.19,0.05 2.18,0.41 2.05,0.75 1.93,1.09 1.70,1.37 1.48,1.65 1.18,1.84 0.87,2.04 0.52,2.12 0.18,2.21 -0.17,2.18 -0.53,2.15 -0.86,2.01 -1.19,1.87 -1.46,1.63 -1.73,1.39 -1.90,1.07 -2.08,0.76 -2.15,0.41 -2.21,0.05 -2.17,-0.29 -2.12,-0.65 -1.96,-0.97 -1.80,-1.29 -1.54,-1.54 -1.29,-1.80 -0.97,-1.96 -0.65,-2.12 -0.29,-2.17 0.06,-2.21 0.41,-2.15 0.76,-2.08 1.07,-1.90 1.39,-1.73 1.63,-1.46 1.87,-1.19 2.01,-0.86 2.15,-0.53 2.18,-0.17 2.21,0.18 2.12,0.52 2.03,0.87 1.84,1.18 1.65,1.48 1.37,1.70 1.09,1.93 0.75,2.05 0.41,2.18 0.05,2.19 -0.30,2.20 -0.64,2.09 -0.98,1.98 -1.27,1.77 -1.57,1.56 -1.57,1.57 -1.57,1.57 -1.73,1.35 -1.90,1.14 -2.01,0.90 -2.12,0.66 -2.16,0.39 -2.21,0.13 -2.20,-0.13 -2.18,-0.40 -2.10,-0.65 -2.02,-0.91 -1.88,-1.14 -1.74,-1.36 -1.55,-1.55 -1.36,-1.74 -1.14,-1.88 -0.91,-2.02 -0.65,-2.10 -0.40,-2.18 -0.13,-2.20 0.13,-2.21 0.39,-2.16 0.66,-2.12 0.90,-2.01 1.14,-1.90 1.35,-1.73 1.57,-1.57 1.57,-1.57 L 1.57,-1.57 Z"></path></g><g transform="translate(298.3999786376953 173.99996948242188) rotate(0 0.00004999999998744897 0.00004999999998744897)" stroke="none"><path fill="#1e1e1e" d="M 1.57,-1.57 Q 1.57,-1.57 1.77,-1.27 1.98,-0.98 2.09,-0.64 2.20,-0.29 2.19,0.05 2.18,0.41 2.05,0.75 1.93,1.09 1.70,1.37 1.48,1.65 1.18,1.84 0.87,2.04 0.52,2.12 0.18,2.21 -0.17,2.18 -0.53,2.15 -0.86,2.01 -1.19,1.87 -1.46,1.63 -1.73,1.39 -1.90,1.07 -2.08,0.76 -2.15,0.41 -2.21,0.05 -2.17,-0.29 -2.12,-0.65 -1.96,-0.97 -1.80,-1.29 -1.54,-1.54 -1.29,-1.80 -0.97,-1.96 -0.65,-2.12 -0.29,-2.17 0.06,-2.21 0.41,-2.15 0.76,-2.08 1.07,-1.90 1.39,-1.73 1.63,-1.46 1.87,-1.19 2.01,-0.86 2.15,-0.53 2.18,-0.17 2.21,0.18 2.12,0.52 2.03,0.87 1.84,1.18 1.65,1.48 1.37,1.70 1.09,1.93 0.75,2.05 0.41,2.18 0.05,2.19 -0.30,2.20 -0.64,2.09 -0.98,1.98 -1.27,1.77 -1.57,1.56 -1.57,1.57 -1.57,1.57 -1.73,1.35 -1.90,1.14 -2.01,0.90 -2.12,0.66 -2.16,0.39 -2.21,0.13 -2.20,-0.13 -2.18,-0.40 -2.10,-0.65 -2.02,-0.91 -1.88,-1.14 -1.74,-1.36 -1.55,-1.55 -1.36,-1.74 -1.14,-1.88 -0.91,-2.02 -0.65,-2.10 -0.40,-2.18 -0.13,-2.20 0.13,-2.21 0.39,-2.16 0.66,-2.12 0.90,-2.01 1.14,-1.90 1.35,-1.73 1.57,-1.57 1.57,-1.57 L 1.57,-1.57 Z"></path></g><g transform="translate(304.8000030517578 193.99996948242188) rotate(0 0.00004999999998744897 0.00004999999998744897)" stroke="none"><path fill="#1e1e1e" d="M 1.57,-1.57 Q 1.57,-1.57 1.77,-1.27 1.98,-0.98 2.09,-0.64 2.20,-0.29 2.19,0.05 2.18,0.41 2.05,0.75 1.93,1.09 1.70,1.37 1.48,1.65 1.18,1.84 0.87,2.04 0.52,2.12 0.18,2.21 -0.17,2.18 -0.53,2.15 -0.86,2.01 -1.19,1.87 -1.46,1.63 -1.73,1.39 -1.90,1.07 -2.08,0.76 -2.15,0.41 -2.21,0.05 -2.17,-0.29 -2.12,-0.65 -1.96,-0.97 -1.80,-1.29 -1.54,-1.54 -1.29,-1.80 -0.97,-1.96 -0.65,-2.12 -0.29,-2.17 0.06,-2.21 0.41,-2.15 0.76,-2.08 1.07,-1.90 1.39,-1.73 1.63,-1.46 1.87,-1.19 2.01,-0.86 2.15,-0.53 2.18,-0.17 2.21,0.18 2.12,0.52 2.03,0.87 1.84,1.18 1.65,1.48 1.37,1.70 1.09,1.93 0.75,2.05 0.41,2.18 0.05,2.19 -0.30,2.20 -0.64,2.09 -0.98,1.98 -1.27,1.77 -1.57,1.56 -1.57,1.57 -1.57,1.57 -1.73,1.35 -1.90,1.14 -2.01,0.90 -2.12,0.66 -2.16,0.39 -2.21,0.13 -2.20,-0.13 -2.18,-0.40 -2.10,-0.65 -2.02,-0.91 -1.88,-1.14 -1.74,-1.36 -1.55,-1.55 -1.36,-1.74 -1.14,-1.88 -0.91,-2.02 -0.65,-2.10 -0.40,-2.18 -0.13,-2.20 0.13,-2.21 0.39,-2.16 0.66,-2.12 0.90,-2.01 1.14,-1.90 1.35,-1.73 1.57,-1.57 1.57,-1.57 L 1.57,-1.57 Z"></path></g><g transform="translate(569.6700210571289 338.2999572753906) rotate(0 38.129981994628906 25)"><text x="38.129981994628906" y="0" font-family="Virgil, Segoe UI Emoji" font-size="20px" fill="#1e1e1e" text-anchor="middle" style="white-space: pre;" direction="ltr" dominant-baseline="text-before-edge">EVENT </text><text x="38.129981994628906" y="25" font-family="Virgil, Segoe UI Emoji" font-size="20px" fill="#1e1e1e" text-anchor="middle" style="white-space: pre;" direction="ltr" dominant-baseline="text-before-edge">LOOP</text></g><g transform="translate(46.51458473214882 250.5999755859375) rotate(0 53.90269470214844 12.699996948242188)"><text x="53.90269470214844" y="0" font-family="Virgil, Segoe UI Emoji" font-size="20.31999511718751px" fill="#1e1e1e" text-anchor="middle" style="white-space: pre;" direction="ltr" dominant-baseline="text-before-edge">JavaScript</text></g><g stroke-linecap="round"><g transform="translate(27.199996948242188 239.5999755859375) rotate(0 0 24)"><path d="M0.37 0.38 C0.4 8.23, 0.13 39.7, 0.15 47.63 M-0.11 0.1 C-0.12 8.25, -0.29 40.07, -0.2 48.14" stroke="#c2255c" stroke-width="1" fill="none"></path></g><g transform="translate(27.199996948242188 239.5999755859375) rotate(0 0 24)"><path d="M-8.45 25.6 C-5.28 32.35, -4.26 39.5, -0.2 48.14 M-8.45 25.6 C-5.9 31.67, -3.72 38.54, -0.2 48.14" stroke="#c2255c" stroke-width="1" fill="none"></path></g><g transform="translate(27.199996948242188 239.5999755859375) rotate(0 0 24)"><path d="M7.97 25.57 C6.4 32.39, 2.69 39.54, -0.2 48.14 M7.97 25.57 C5.78 31.63, 3.22 38.51, -0.2 48.14" stroke="#c2255c" stroke-width="1" fill="none"></path></g></g><mask></mask><g stroke-linecap="round"><g transform="translate(165.92696712638826 287.483336013574) rotate(0 -0.800018310546875 -23.600021362304688)"><path d="M-0.23 0 C-0.47 -7.97, -1.41 -39.81, -1.58 -47.69 M0.65 -0.48 C0.35 -8.41, -1.65 -39.53, -2 -47.24" stroke="#c2255c" stroke-width="1" fill="none"></path></g><g transform="translate(165.92696712638826 287.483336013574) rotate(0 -0.800018310546875 -23.600021362304688)"><path d="M7.3 -25.54 C4.75 -31.42, 1.33 -36.76, -2 -47.24 M7.3 -25.54 C5.12 -31.54, 1.67 -38.05, -2 -47.24" stroke="#c2255c" stroke-width="1" fill="none"></path></g><g transform="translate(165.92696712638826 287.483336013574) rotate(0 -0.800018310546875 -23.600021362304688)"><path d="M-8.83 -24.64 C-7 -30.73, -6.04 -36.31, -2 -47.24 M-8.83 -24.64 C-6.45 -30.87, -5.36 -37.63, -2 -47.24" stroke="#c2255c" stroke-width="1" fill="none"></path></g></g><mask></mask><g stroke-linecap="round"><g transform="translate(184.8000030517578 322.7999572753906) rotate(0 106.79998779296875 0)"><path d="M1.13 1.07 C36.76 0.88, 177.52 0.1, 212.87 0.07 M0.26 0.59 C36.36 1.12, 179.87 1.9, 215.2 1.64" stroke="#c2255c" stroke-width="1" fill="none"></path></g><g transform="translate(184.8000030517578 322.7999572753906) rotate(0 106.79998779296875 0)"><path d="M187.01 11.9 C195.04 8.11, 199.72 6.39, 215.2 1.64 M187.01 11.9 C197.44 7.44, 207.69 5.02, 215.2 1.64" stroke="#c2255c" stroke-width="1" fill="none"></path></g><g transform="translate(184.8000030517578 322.7999572753906) rotate(0 106.79998779296875 0)"><path d="M187.01 -8.62 C195.25 -7.79, 199.93 -4.89, 215.2 1.64 M187.01 -8.62 C197.53 -5.37, 207.77 -0.09, 215.2 1.64" stroke="#c2255c" stroke-width="1" fill="none"></path></g></g><mask></mask><g stroke-linecap="round"><g transform="translate(394.3999786376953 419.5999755859375) rotate(0 -103.19998168945312 1.600006103515625)"><path d="M0.41 0.25 C-34.25 0.63, -172.27 2.08, -206.88 2.46 M-0.84 -0.66 C-35.78 -0.16, -174.08 2.91, -208.08 3.6" stroke="#c2255c" stroke-width="1" fill="none"></path></g><g transform="translate(394.3999786376953 419.5999755859375) rotate(0 -103.19998168945312 1.600006103515625)"><path d="M-180.11 -7.25 C-190.5 -3.76, -202.97 -0.21, -208.08 3.6 M-180.11 -7.25 C-186.51 -3.61, -193.76 -1.67, -208.08 3.6" stroke="#c2255c" stroke-width="1" fill="none"></path></g><g transform="translate(394.3999786376953 419.5999755859375) rotate(0 -103.19998168945312 1.600006103515625)"><path d="M-179.68 13.26 C-190.26 8.82, -202.9 4.44, -208.08 3.6 M-179.68 13.26 C-186.21 11.91, -193.57 8.86, -208.08 3.6" stroke="#c2255c" stroke-width="1" fill="none"></path></g></g><mask></mask><g stroke-linecap="round"><g transform="translate(493.59999084472656 309.1999816894531) rotate(0 28.399993896484375 -0.8000030517578125)"><path d="M-0.29 -0.97 C9.31 -1.06, 47.24 -0.83, 56.75 -0.78 M1.76 1.13 C11.27 0.73, 46.74 -1.86, 55.78 -2.47" stroke="#c2255c" stroke-width="1" fill="none"></path></g><g transform="translate(493.59999084472656 309.1999816894531) rotate(0 28.399993896484375 -0.8000030517578125)"><path d="M29.82 9.09 C34.23 6.4, 43.22 3.73, 55.78 -2.47 M29.82 9.09 C40.14 4.89, 48.42 -0.57, 55.78 -2.47" stroke="#c2255c" stroke-width="1" fill="none"></path></g><g transform="translate(493.59999084472656 309.1999816894531) rotate(0 28.399993896484375 -0.8000030517578125)"><path d="M28.46 -10.29 C33.14 -8.5, 42.44 -6.69, 55.78 -2.47 M28.46 -10.29 C39.32 -7.21, 48.11 -5.38, 55.78 -2.47" stroke="#c2255c" stroke-width="1" fill="none"></path></g></g><mask></mask><g stroke-linecap="round"><g transform="translate(553.5999908447266 424.39996337890625) rotate(0 -28.79998779296875 0)"><path d="M-0.61 0.98 C-10.03 0.96, -47.98 -0.35, -57.39 -0.55 M1.27 0.45 C-8.21 0.63, -48.43 0.61, -58.22 0.7" stroke="#c2255c" stroke-width="1" fill="none"></path></g><g transform="translate(553.5999908447266 424.39996337890625) rotate(0 -28.79998779296875 0)"><path d="M-31.2 -9.25 C-35.75 -6.77, -44.46 -3.92, -58.22 0.7 M-31.2 -9.25 C-39.14 -6.72, -45.69 -3.47, -58.22 0.7" stroke="#c2255c" stroke-width="1" fill="none"></path></g><g transform="translate(553.5999908447266 424.39996337890625) rotate(0 -28.79998779296875 0)"><path d="M-31.12 10.45 C-35.62 8.44, -44.35 6.81, -58.22 0.7 M-31.12 10.45 C-39.07 7.46, -45.64 5.18, -58.22 0.7" stroke="#c2255c" stroke-width="1" fill="none"></path></g></g><mask></mask><g stroke-linecap="round"><g transform="translate(656.8000640869141 310.0000305175781) rotate(0 74.79998779296875 0.39996337890625)"><path d="M0.16 -0.34 C24.92 -0.49, 124.62 0.07, 149.34 0.24 M-1.22 -1.57 C23.29 -1.05, 122.92 0.9, 148.26 1.49" stroke="#c2255c" stroke-width="1" fill="none"></path></g><g transform="translate(656.8000640869141 310.0000305175781) rotate(0 74.79998779296875 0.39996337890625)"><path d="M119.86 11.15 C129.58 7.15, 139.6 2.22, 148.26 1.49 M119.86 11.15 C128.83 7.98, 136.13 5.87, 148.26 1.49" stroke="#c2255c" stroke-width="1" fill="none"></path></g><g transform="translate(656.8000640869141 310.0000305175781) rotate(0 74.79998779296875 0.39996337890625)"><path d="M120.29 -9.37 C130.05 -5.86, 139.91 -3.3, 148.26 1.49 M120.29 -9.37 C129.03 -6.56, 136.21 -2.7, 148.26 1.49" stroke="#c2255c" stroke-width="1" fill="none"></path></g></g><mask></mask><g stroke-linecap="round"><g transform="translate(808.5269427123258 401.88337568642555) rotate(0 -70.7999267578125 -2.000030517578125)"><path d="M0.35 0.36 C-23.11 -0.45, -116.96 -4.44, -140.75 -4.99 M-0.93 -0.49 C-24.47 -1.18, -118.09 -3.27, -141.25 -3.96" stroke="#c2255c" stroke-width="1" fill="none"></path></g><g transform="translate(808.5269427123258 401.88337568642555) rotate(0 -70.7999267578125 -2.000030517578125)"><path d="M-112.81 -13.5 C-120.8 -9.12, -131.64 -8.95, -141.25 -3.96 M-112.81 -13.5 C-123.33 -9.6, -134.2 -5.34, -141.25 -3.96" stroke="#c2255c" stroke-width="1" fill="none"></path></g><g transform="translate(808.5269427123258 401.88337568642555) rotate(0 -70.7999267578125 -2.000030517578125)"><path d="M-113.33 7.02 C-121.15 5.2, -131.84 -0.84, -141.25 -3.96 M-113.33 7.02 C-123.78 2.91, -134.44 -0.84, -141.25 -3.96" stroke="#c2255c" stroke-width="1" fill="none"></path></g></g><mask></mask><g transform="translate(674.7057723999023 416.49998474121094) rotate(0 63.74217850730679 9.415373309039637)"><text x="63.74217850730676" y="0" font-family="Virgil, Segoe UI Emoji" font-size="15.064597294463388px" fill="#1e1e1e" text-anchor="middle" style="white-space: pre;" direction="ltr" dominant-baseline="text-before-edge">Execute Callback</text></g><g transform="translate(655.5425186157227 275.78453208646806) rotate(0 66.91409260699857 9.415373309039637)"><text x="66.91409260699861" y="0" font-family="Virgil, Segoe UI Emoji" font-size="15.064597294463425px" fill="#1e1e1e" text-anchor="middle" style="white-space: pre;" direction="ltr" dominant-baseline="text-before-edge">Blocking Operation</text></g><g transform="translate(197.4300994873047 10) rotate(0 231.1234540771693 27.899993896484375)"><text x="231.12345407716924" y="0" font-family="Virgil, Segoe UI Emoji" font-size="44.63999023437499px" fill="#1e1e1e" text-anchor="middle" style="white-space: pre;" direction="ltr" dominant-baseline="text-before-edge">Node.JS Architecture</text></g></svg>